<?xml version="1.0" encoding="utf-8"?>
<!-- Generator: Adobe Illustrator 25.4.1, SVG Export Plug-In . SVG Version: 6.00 Build 0)  -->
<svg version="1.1" id="Capa_1" xmlns="http://www.w3.org/2000/svg" xmlns:xlink="http://www.w3.org/1999/xlink" x="0px" y="0px"
	 viewBox="0 0 512 512" style="enable-background:new 0 0 512 512;" xml:space="preserve">
<style type="text/css">
	.st0{fill:#FFFFFF;}
</style>
<g>
	<path class="st0" d="M437,75C388.7,26.6,324.4,0,256,0S123.3,26.6,75,75C26.6,123.3,0,187.6,0,256s26.6,132.7,75,181
		c48.4,48.4,112.6,75,181,75s132.7-26.6,181-75c48.4-48.4,75-112.6,75-181S485.4,123.3,437,75L437,75z M426.4,426.4
		c-34.1,34.1-76.6,56.7-122.8,65.9V327.6h34.3c7.1,0,13.3-4.8,15.1-11.8l12-48.1c1.2-4.7,0.1-9.5-2.8-13.3c-3-3.8-7.4-6-12.2-6
		h-53.9c-4.1,0-7.5,3.4-7.5,7.5c0,4.1,3.4,7.5,7.5,7.5h53.9c0.1,0,0.3,0,0.4,0.2c0.2,0.2,0.1,0.4,0.1,0.4l-12,48.1
		c-0.1,0.2-0.3,0.4-0.5,0.4h-41.8c-4.1,0-7.5,3.4-7.5,7.5v174.7c-10.7,1.4-21.6,2.2-32.6,2.2c-64.4,0-124.9-25.1-170.4-70.6
		S15,320.4,15,256S40.1,131.1,85.6,85.6S191.6,15,256,15s124.9,25.1,170.4,70.6S497,191.6,497,256S471.9,380.9,426.4,426.4
		L426.4,426.4z"/>
	<path class="st0" d="M352.2,96.2h-48.1c-52.8,0-95.7,42.9-95.7,95.7v56.6h-48.6c-8.6,0-15.5,7-15.5,15.5v48.1
		c0,8.6,7,15.5,15.5,15.5h48.6v136.8c0,4.1,3.4,7.5,7.5,7.5s7.5-3.4,7.5-7.5V320.1c0-4.1-3.4-7.5-7.5-7.5h-56.1
		c-0.3,0-0.5-0.2-0.5-0.5V264c0-0.3,0.2-0.5,0.5-0.5h56.1c4.1,0,7.5-3.4,7.5-7.5v-64.1c0-44.5,36.2-80.7,80.7-80.7h48.1
		c0.3,0,0.5,0.2,0.5,0.5v48.1c0,0.3-0.2,0.5-0.5,0.5h-32.1c-17.4,0-31.5,14.2-31.5,31.5v32.1c0,4.1,3.4,7.5,7.5,7.5s7.5-3.4,7.5-7.5
		v-32.1c0-9.1,7.4-16.5,16.5-16.5h32.1c8.6,0,15.5-7,15.5-15.5v-48.1C367.7,103.2,360.7,96.2,352.2,96.2z"/>
</g>
</svg>
