<?xml version="1.0" encoding="utf-8"?>
<!-- Generator: Adobe Illustrator 25.4.1, SVG Export Plug-In . SVG Version: 6.00 Build 0)  -->
<svg version="1.1" id="Layer_1" xmlns="http://www.w3.org/2000/svg" xmlns:xlink="http://www.w3.org/1999/xlink" x="0px" y="0px"
	 viewBox="0 0 512 512" style="enable-background:new 0 0 512 512;" xml:space="preserve">
<style type="text/css">
	.st0{fill:#FFFFFF;}
</style>
<g>
	<g>
		<path class="st0" d="M437,75C388.7,26.6,324.4,0,256,0S123.3,26.6,75,75C26.6,123.3,0,187.6,0,256s26.6,132.7,75,181
			c48.4,48.4,112.6,75,181,75s132.7-26.6,181-75s75-112.6,75-181S485.4,123.3,437,75z M256,495.8C123.8,495.8,16.2,388.2,16.2,256
			S123.8,16.2,256,16.2S495.8,123.8,495.8,256S388.2,495.8,256,495.8z"/>
	</g>
</g>
<g>
	<g>
		<path class="st0" d="M439,141.5c-1.9-13.1-12.5-23.4-25.7-24.9c-104.3-11.8-210.1-11.8-314.5,0c-13.2,1.5-23.8,11.7-25.7,24.9
			c-11.1,75.9-11.1,153,0,228.9c1.9,13.1,12.5,23.4,25.7,24.9c52.2,5.9,104.7,8.9,157.2,8.9c22.4,0,44.7-0.5,67.1-1.6
			c4.3-0.2,7.7-3.8,7.7-8.1c0-4.6-3.9-8.3-8.5-8.1c-73.9,3.5-148.2,1.2-221.7-7.2c-6-0.7-10.7-5.2-11.6-11.1
			c-10.9-74.4-10.9-149.8,0-224.2c0.9-5.9,5.6-10.4,11.6-11.1c51.6-5.8,103.5-8.8,155.4-8.8s103.8,2.9,155.4,8.8
			c6,0.7,10.7,5.2,11.6,11.1c10.9,74.4,10.9,149.8,0,224.2c-0.9,5.9-5.6,10.5-11.6,11.1c0,0,0,0,0,0c-16.6,1.9-33.3,3.5-50,4.7
			c-4.2,0.3-7.5,3.8-7.5,8.1v0c0,4.7,4,8.4,8.7,8.1c16.9-1.3,33.8-2.9,50.6-4.8c13.2-1.5,23.8-11.7,25.7-24.9
			C450.1,294.5,450.1,217.5,439,141.5z"/>
	</g>
</g>
<g>
	<g>
		<path class="st0" d="M346,248.8l-140.1-73.6c-2.5-1.3-5.5-1.2-7.9,0.2c-2.4,1.5-3.9,4.1-3.9,6.9v147.2c0,2.8,1.5,5.5,3.9,6.9
			c1.3,0.8,2.7,1.2,4.2,1.2c1.3,0,2.6-0.3,3.8-0.9L346,263.2c2.7-1.4,4.3-4.2,4.3-7.2C350.3,253,348.6,250.2,346,248.8z
			 M210.2,316.2V195.8L324.8,256L210.2,316.2z"/>
	</g>
</g>
</svg>
